<?xml version="1.0" encoding="UTF-8"?>
<svg xmlns="http://www.w3.org/2000/svg" version="1.1" viewBox="0 0 85.56 85.57">
  <defs>
    <style>
      .cls-1 {
        fill: #00447c;
      }

      .cls-1, .cls-2 {
        fill-rule: evenodd;
      }

      .cls-2 {
        fill: #c8b18b;
      }
    </style>
  </defs>
  <!-- Generator: Adobe Illustrator 28.7.1, SVG Export Plug-In . SVG Version: 1.2.0 Build 142)  -->
  <g>
    <g id="Layer_1">
      <path class="cls-1" d="M58.43,82.62h0c3.16-1.24,6.27-2.88,9.15-4.98,19.27-13.73,23.74-40.46,10-59.68C67.08,3.16,48.88-2.89,32.27,1.3h0c-3.39.85-6.78,2.15-9.95,3.9l-2.32,1.47,1.92,2.49c.9-.62,1.92-1.24,3-1.64l3.08-1.4c.27.69,1.06,2.2,1.06,2.37-.34.11-2.56,1.3-3.24,1.64l1.75,3.32,1.02,1.92c1.92-.96,5.99-2.26,5.99-2.26,12.09-3.34,25.54.96,33.23,11.81,9.16,12.77,7.12,30.12-4.13,40.46-.68.51.96,7.4,1.02,8.42l-10-2.6-.17.06-.28.17c-1.41.57-5.67,1.4-7.63,1.31l.34,2.49c1.62.08,4.92-.4,6.22-.91l.62,1.58c-1.02.4-2.03.73-3.05.96l.9,2.88c.73-.11,1.47-.34,2.2-.56l.59,1.72c-.74.23-2.23.59-2.23.59-.34.06-1.92.45-2.54.51-5.48.96-11.02.79-16.33-.51l-.57,2.88c5.99,1.47,12.32,1.58,18.42.4h0c.9-.23,1.81-.45,2.71-.68h0c1.36-.34,2.66-.79,3.96-1.24h0l.57-.23h0Z"/>
      <path class="cls-2" d="M12.88,16.44c1.98-2.2,4.24-4.3,6.78-6.1l.11-.06-1.75-2.37-.11.06c-2.49,1.81-4.75,3.79-6.78,5.99l1.75,2.49Z"/>
      <path class="cls-1" d="M5.37,29.16c1.41-3.95,3.5-7.74,6.16-11.08l-1.87-2.37c-3,3.67-5.37,7.74-6.95,12.09l2.66,1.36Z"/>
      <path class="cls-2" d="M4.2,55.77c-1.36-4.01-2.09-8.14-2.15-12.32l-2.06.57c.11,4.24.9,8.53,2.32,12.66l1.89-.9Z"/>
      <path class="cls-1" d="M10.09,71.05c4.29,4.92,9.49,8.65,15.15,11.13l.74-2.88c-4.92-2.26-9.44-5.54-13.22-9.78l-2.66,1.53Z"/>
      <path class="cls-2" d="M26.9,16.33l-1.24-2.09c-.73.45-1.47.96-2.2,1.47-2.03,1.41-3.84,3.05-5.43,4.86l1.87,1.53c1.47-1.58,3.11-3.11,4.97-4.41.68-.45,1.36-.9,2.03-1.36h0Z"/>
      <path class="cls-2" d="M18.93,23.22l-1.92-1.53c-2.26,2.83-4.07,5.88-5.31,9.15l2.26.91c1.19-3.05,2.83-5.93,4.97-8.53h0Z"/>
      <path class="cls-1" d="M13.45,33.17l-2.26-.79c-1.07,3.28-1.64,6.72-1.7,10.17h2.43c0-3.17.51-6.39,1.53-9.38h0Z"/>
      <path class="cls-2" d="M14.95,54.13l-2.26.85c.96,2.49,2.26,4.86,3.9,7.12.4.56.79,1.07,1.19,1.64l1.81-1.64c-.34-.45-.74-.9-1.07-1.41-1.47-2.09-2.66-4.3-3.56-6.56h0Z"/>
      <path class="cls-2" d="M21.28,64.08l-1.92,1.47c3.22,3.39,7.01,5.99,11.08,7.8l.79-2.32c-3.67-1.58-7.06-3.96-9.95-6.95h0Z"/>
      <path class="cls-1" d="M1.27,33.31c.51.68,1.47.85,2.15.34.73-.51.9-1.47.4-2.15-.51-.73-1.47-.9-2.2-.4-.68.51-.85,1.47-.34,2.2h0Z"/>
      <path class="cls-2" d="M27.86,82.79c.51.73,1.47.85,2.2.4.68-.51.85-1.53.34-2.2-.51-.73-1.47-.9-2.2-.39-.68.51-.85,1.53-.34,2.2h0Z"/>
      <path class="cls-1" d="M17.84,17.48c1.32-1.28,2.8-2.43,4.41-3.46.58-.41,1.2-.7,1.77-1.03-.12-.37-.62-1.28-.91-1.94-.74.33-1.36.74-2.06,1.15-1.73,1.11-3.38,2.39-4.82,3.79l1.61,1.49Z"/>
      <path class="cls-2" d="M9.44,24.71c-2.38,3.97-4.36,12.42-4.36,16.57h2.37c.58-7.34,1.32-9.52,4.24-15.4l-2.26-1.17Z"/>
      <path class="cls-1" d="M9.27,54.02c-1.07-3.16-1.7-6.5-1.75-9.83l-2.66.28c.06,3.5.73,7.01,1.86,10.34l2.54-.79Z"/>
      <path class="cls-1" d="M14.92,64.81c-2.09-2.6-3.84-5.59-5.03-8.7l-2.43,1.19c1.3,3.33,3.11,6.44,5.37,9.21l2.09-1.7Z"/>
      <path class="cls-1" d="M30.69,76.29c-3.16-1.19-6.16-2.83-8.82-4.92l-1.98,1.87c3.22,2.49,6.61,4.46,10,5.6l.79-2.54Z"/>
      <path class="cls-1" d="M41.63,77.32c-2.6-.17-5.14-.68-7.63-1.47l-.62,2.6c2.82.91,5.59,1.41,8.25,1.53v-2.66Z"/>
      <path class="cls-1" d="M11.82,22.63c.51.68,1.47.85,2.15.34.73-.45.9-1.47.4-2.15-.51-.73-1.47-.9-2.2-.4-.68.51-.85,1.47-.34,2.2h0Z"/>
      <path class="cls-2" d="M45.2,79.59c.54.72,1.5.9,2.23.36.72-.48.9-1.5.42-2.23-.54-.66-1.57-.84-2.23-.36-.72.54-.9,1.51-.42,2.23h0Z"/>
      <path class="cls-2" d="M11.2,50.44c1.1,1.47,3.07,1.84,4.54.73,1.47-.98,1.84-3.06.86-4.54-1.1-1.35-3.19-1.72-4.54-.74-1.47,1.1-1.84,3.07-.86,4.54h0Z"/>
      <path class="cls-2" d="M.77,67.56c1.35,1.81,3.75,2.26,5.55.9,1.8-1.2,2.25-3.76,1.05-5.57-1.35-1.66-3.9-2.11-5.55-.9-1.8,1.35-2.25,3.76-1.05,5.57h0Z"/>
      <path class="cls-1" d="M.3,39.63c.51.68,1.47.85,2.15.34.73-.51.9-1.47.4-2.15-.51-.73-1.47-.9-2.2-.4-.68.51-.85,1.47-.34,2.2H.3Z"/>
    </g>
  </g>
</svg>