<svg id="svg" xmlns="http://www.w3.org/2000/svg" xmlns:xlink="http://www.w3.org/1999/xlink" width="400" height="346.40000000000003" viewBox="0, 0, 400,346.40000000000003"><g id="svg"><path id="path0" d="M122.101 3.651 C 103.017 14.405,90.668 27.883,85.703 43.378 C 84.817 46.140,83.895 48.940,83.652 49.600 C 83.410 50.260,83.353 44.860,83.527 37.600 C 83.866 23.388,85.184 16.726,89.236 8.729 C 92.085 3.107,90.541 3.821,82.020 12.063 C 71.969 21.787,65.290 31.534,61.504 42.000 L 60.058 46.000 60.038 36.800 C 60.027 31.235,60.478 25.876,61.180 23.237 C 62.739 17.380,62.345 17.384,58.014 23.267 C 49.718 34.537,44.503 47.380,43.386 59.297 L 42.757 66.000 40.875 59.200 C 39.676 54.871,38.957 50.001,38.896 45.800 C 38.783 38.032,38.930 38.204,36.507 43.000 C 29.666 56.538,26.940 79.652,30.951 90.106 C 31.255 90.898,31.147 91.262,30.692 90.980 C 29.080 89.984,23.174 76.972,21.714 71.200 C 20.879 67.900,20.000 65.740,19.760 66.400 C 15.084 79.273,16.549 104.795,22.695 117.537 L 24.726 121.746 21.363 118.992 C 17.088 115.491,10.079 106.902,8.314 103.000 C 7.162 100.454,5.600 98.975,5.600 100.432 C 5.600 110.916,9.839 127.223,15.232 137.481 L 19.165 144.963 16.182 142.737 C 9.250 137.561,5.387 133.979,2.986 130.500 C -0.461 125.505,-0.800 127.623,1.999 136.671 C 4.855 145.902,11.294 158.089,16.259 163.659 L 20.288 168.179 17.064 166.535 C 12.536 164.225,6.456 159.589,3.448 156.153 C -0.150 152.042,-0.503 153.302,2.336 160.122 C 7.763 173.156,15.759 184.231,25.134 191.700 C 30.495 195.972,30.649 196.184,28.000 195.638 C 19.646 193.917,7.219 188.910,3.937 185.942 C 0.946 183.237,0.992 185.171,4.026 189.639 C 11.863 201.179,22.192 208.919,35.600 213.299 C 41.849 215.340,41.780 215.451,34.400 215.224 C 27.957 215.025,19.296 213.271,14.686 211.232 C 10.062 209.187,10.290 210.208,15.525 214.992 C 26.382 224.915,36.644 229.484,51.192 230.873 L 57.184 231.445 54.234 232.466 C 45.118 235.622,29.833 236.626,19.600 234.740 L 17.200 234.298 19.495 236.254 C 26.262 242.025,40.962 247.146,51.146 247.280 L 57.200 247.360 52.400 248.927 C 49.760 249.790,44.360 250.715,40.400 250.984 L 33.200 251.474 37.365 253.306 C 49.625 258.699,63.635 259.244,76.400 254.826 C 77.532 254.434,77.298 254.872,75.603 256.323 C 72.364 259.095,63.860 263.221,58.000 264.863 L 53.200 266.209 56.400 266.904 C 67.876 269.399,82.894 266.752,91.820 260.661 L 96.400 257.535 90.645 263.129 C 87.480 266.206,83.160 269.624,81.045 270.724 L 77.200 272.726 80.053 272.763 C 87.654 272.862,98.006 269.475,103.000 265.255 C 107.146 261.752,106.014 264.261,101.000 269.689 L 96.400 274.669 99.073 274.140 C 115.119 270.964,122.324 258.456,121.247 235.645 C 120.642 222.824,121.482 218.129,125.775 210.319 L 128.291 205.743 124.248 201.319 C 118.077 194.566,118.093 194.325,125.965 175.644 C 127.994 170.829,130.945 163.112,132.523 158.495 L 135.391 150.102 133.686 145.251 C 120.099 106.587,133.509 33.455,159.035 7.015 C 161.910 4.037,164.045 1.600,163.779 1.600 C 156.722 1.600,130.386 16.271,120.079 25.945 C 115.885 29.881,115.775 29.930,116.341 27.613 C 118.219 19.923,123.058 10.266,129.274 1.800 C 131.285 -0.939,129.371 -0.445,122.101 3.651 M270.726 1.800 C 276.942 10.266,281.781 19.923,283.659 27.613 C 284.225 29.930,284.115 29.881,279.921 25.945 C 269.614 16.271,243.278 1.600,236.221 1.600 C 235.955 1.600,238.090 4.037,240.965 7.015 C 266.491 33.455,279.901 106.587,266.314 145.251 L 264.609 150.102 267.477 158.495 C 269.055 163.112,272.006 170.829,274.035 175.644 C 281.907 194.325,281.923 194.566,275.752 201.319 L 271.709 205.743 274.225 210.319 C 278.518 218.129,279.358 222.824,278.753 235.645 C 277.676 258.456,284.881 270.964,300.927 274.140 L 303.600 274.669 299.000 269.689 C 293.986 264.261,292.854 261.752,297.000 265.255 C 301.994 269.475,312.346 272.862,319.947 272.763 L 322.800 272.726 318.955 270.724 C 316.840 269.624,312.520 266.206,309.355 263.129 L 303.600 257.535 308.180 260.661 C 317.106 266.752,332.124 269.399,343.600 266.904 L 346.800 266.209 342.000 264.863 C 336.140 263.221,327.636 259.095,324.397 256.323 C 322.702 254.872,322.468 254.434,323.600 254.826 C 336.365 259.244,350.375 258.699,362.635 253.306 L 366.800 251.474 359.600 250.984 C 355.640 250.715,350.240 249.790,347.600 248.927 L 342.800 247.360 348.854 247.280 C 359.038 247.146,373.738 242.025,380.505 236.254 L 382.800 234.298 380.400 234.740 C 370.167 236.626,354.882 235.622,345.766 232.466 L 342.816 231.445 348.808 230.873 C 363.356 229.484,373.618 224.915,384.475 214.992 C 389.710 210.208,389.938 209.187,385.314 211.232 C 380.704 213.271,372.043 215.025,365.600 215.224 C 358.220 215.451,358.151 215.340,364.400 213.299 C 377.808 208.919,388.137 201.179,395.974 189.639 C 399.008 185.171,399.054 183.237,396.063 185.942 C 392.781 188.910,380.354 193.917,372.000 195.638 C 369.351 196.184,369.505 195.972,374.866 191.700 C 384.241 184.231,392.237 173.156,397.664 160.122 C 400.503 153.302,400.150 152.042,396.552 156.153 C 393.544 159.589,387.464 164.225,382.936 166.535 L 379.712 168.179 383.741 163.659 C 388.706 158.089,395.145 145.902,398.001 136.671 C 400.800 127.623,400.461 125.505,397.014 130.500 C 394.613 133.979,390.750 137.561,383.818 142.737 L 380.835 144.963 384.768 137.481 C 390.161 127.223,394.400 110.916,394.400 100.432 C 394.400 98.975,392.838 100.454,391.686 103.000 C 389.921 106.902,382.912 115.491,378.637 118.992 L 375.274 121.746 377.305 117.537 C 383.451 104.795,384.916 79.273,380.240 66.400 C 380.000 65.740,379.121 67.900,378.286 71.200 C 376.826 76.972,370.920 89.984,369.308 90.980 C 368.853 91.262,368.745 90.898,369.049 90.106 C 373.060 79.652,370.334 56.538,363.493 43.000 C 361.070 38.204,361.217 38.032,361.104 45.800 C 361.043 50.001,360.324 54.871,359.125 59.200 L 357.243 66.000 356.614 59.297 C 355.497 47.380,350.282 34.537,341.986 23.267 C 337.655 17.384,337.261 17.380,338.820 23.237 C 339.522 25.876,339.973 31.235,339.962 36.800 L 339.942 46.000 338.496 42.000 C 334.710 31.534,328.031 21.787,317.980 12.063 C 309.459 3.821,307.915 3.107,310.764 8.729 C 314.816 16.726,316.134 23.388,316.473 37.600 C 316.647 44.860,316.590 50.260,316.348 49.600 C 316.105 48.940,315.183 46.140,314.297 43.378 C 309.266 27.676,296.877 14.215,277.691 3.603 C 270.376 -0.444,268.775 -0.858,270.726 1.800 M195.200 38.000 L 195.200 63.200 199.600 63.200 L 204.000 63.200 204.000 38.000 L 204.000 12.800 199.600 12.800 L 195.200 12.800 195.200 38.000 M213.304 31.400 C 212.173 35.620,212.761 37.138,216.425 39.460 C 236.075 51.911,232.689 83.521,210.797 91.995 C 178.412 104.530,154.554 61.573,182.018 40.177 C 185.244 37.664,186.365 32.844,184.280 30.457 C 183.630 29.713,178.589 32.778,174.685 36.292 C 149.322 59.118,165.418 101.600,199.430 101.600 C 237.708 101.600,251.622 50.919,218.591 31.807 C 213.999 29.150,213.909 29.143,213.304 31.400 M184.628 112.264 C 178.449 123.008,169.463 128.885,152.000 133.607 C 140.934 136.599,141.857 135.759,140.044 144.477 C 138.326 152.742,134.715 162.953,127.855 178.948 C 122.023 192.546,122.100 194.907,128.574 200.875 C 131.652 203.712,140.957 208.800,143.067 208.800 C 145.055 208.800,146.372 198.474,145.102 192.850 L 143.858 187.341 141.059 188.510 C 134.890 191.088,134.708 188.478,140.039 173.869 C 145.531 158.814,149.768 150.209,152.372 148.815 C 153.520 148.201,155.150 146.134,155.996 144.223 C 157.346 141.171,158.196 140.448,162.967 138.294 C 179.408 130.870,182.947 128.775,184.071 125.800 C 184.528 124.590,185.934 121.980,187.195 120.000 C 190.175 115.318,190.816 112.536,189.594 109.584 C 188.243 106.324,187.955 106.479,184.628 112.264 M210.406 109.584 C 209.184 112.536,209.825 115.318,212.805 120.000 C 214.066 121.980,215.472 124.590,215.929 125.800 C 217.053 128.775,220.592 130.870,237.033 138.294 C 241.804 140.448,242.654 141.171,244.004 144.223 C 244.850 146.134,246.480 148.201,247.628 148.815 C 250.232 150.209,254.469 158.814,259.961 173.869 C 265.292 188.478,265.110 191.088,258.941 188.510 L 256.142 187.341 254.898 192.850 C 253.628 198.474,254.945 208.800,256.933 208.800 C 258.929 208.800,268.197 203.818,271.129 201.169 C 278.124 194.849,278.163 192.917,271.599 177.659 C 265.491 163.459,260.322 148.410,259.548 142.574 C 258.773 136.737,258.286 136.358,248.000 133.593 C 230.567 128.906,221.555 123.015,215.372 112.264 C 212.045 106.479,211.757 106.324,210.406 109.584 M188.446 144.394 C 181.111 147.007,177.360 152.704,177.260 161.384 L 177.200 166.646 180.800 168.513 C 193.354 175.025,207.744 175.055,219.363 168.594 C 227.462 164.092,221.224 147.104,210.324 143.978 C 206.265 142.814,192.126 143.083,188.446 144.394 M160.023 164.858 C 147.461 170.556,142.718 182.868,147.659 196.951 C 148.229 198.574,148.389 200.014,148.015 200.151 C 145.221 201.175,142.923 233.777,144.747 246.501 C 149.630 280.558,165.628 298.499,193.571 301.252 L 199.200 301.807 199.200 265.386 L 199.200 228.966 196.432 226.535 C 191.811 222.478,187.248 220.268,177.200 217.219 C 158.982 211.691,152.815 208.602,150.286 203.737 C 149.746 202.698,150.633 203.249,152.492 205.108 C 156.005 208.621,161.502 211.326,168.935 213.199 C 184.291 217.070,190.204 219.736,196.200 225.492 L 200.000 229.140 203.800 225.492 C 209.897 219.639,214.637 217.532,232.259 212.839 C 240.056 210.763,243.940 208.806,247.670 205.077 C 249.277 203.470,250.185 202.906,249.697 203.819 C 247.122 208.630,240.912 211.723,222.800 217.219 C 212.752 220.268,208.189 222.478,203.568 226.535 L 200.800 228.966 200.800 265.386 L 200.800 301.807 206.429 301.252 C 225.699 299.353,239.108 290.328,247.516 273.600 C 249.616 269.420,251.078 266.900,250.763 268.000 C 250.449 269.100,249.153 272.070,247.884 274.600 C 246.615 277.130,245.685 279.200,245.816 279.200 C 245.948 279.200,248.203 278.435,250.828 277.500 C 268.255 271.290,273.586 276.180,266.376 291.762 C 261.378 302.563,257.774 306.575,251.012 308.864 C 248.868 309.589,246.143 311.087,244.957 312.192 C 239.827 316.971,232.339 321.678,227.483 323.178 C 223.908 324.282,221.684 325.528,220.253 327.229 C 219.116 328.580,216.090 330.743,213.528 332.036 C 207.733 334.961,203.766 338.391,202.089 341.926 C 199.451 347.485,201.257 347.801,209.739 343.265 C 212.962 341.540,218.840 339.165,222.800 337.986 C 229.130 336.102,230.531 335.330,234.400 331.599 C 240.489 325.727,245.414 322.978,255.200 319.993 C 265.036 316.992,265.264 316.844,265.984 313.005 C 266.912 308.058,270.957 300.062,277.662 289.923 C 287.062 275.708,286.824 273.062,275.600 266.995 L 270.800 264.400 270.532 258.538 C 270.332 254.162,270.568 252.337,271.464 251.338 C 272.221 250.493,273.131 246.153,273.932 239.568 C 276.223 220.722,275.659 218.290,269.365 219.875 C 264.405 221.124,261.984 221.040,259.037 219.516 L 256.553 218.231 257.071 223.716 C 257.356 226.732,257.591 231.175,257.594 233.589 L 257.600 237.977 259.368 235.489 C 268.194 223.065,272.286 231.418,264.918 246.820 C 261.956 253.012,261.890 253.331,263.061 255.805 C 264.170 258.146,264.155 258.503,262.889 259.902 C 261.813 261.091,261.737 261.529,262.551 261.858 C 263.128 262.091,261.315 262.074,258.523 261.819 C 254.667 261.467,253.256 261.626,252.658 262.478 C 251.823 263.668,251.833 263.609,254.252 253.200 C 257.061 241.111,255.376 201.375,252.002 200.153 C 251.627 200.018,251.838 198.669,252.470 197.155 C 257.649 184.762,252.828 171.265,241.174 165.528 C 234.787 162.383,232.883 162.592,223.337 167.487 C 204.973 176.901,194.630 176.818,176.161 167.110 C 167.867 162.750,165.421 162.409,160.023 164.858 M139.666 219.728 C 137.912 220.677,136.323 220.847,133.266 220.410 C 125.684 219.327,125.398 219.380,124.678 222.000 C 123.663 225.696,126.225 250.066,127.735 251.076 C 129.181 252.045,129.440 254.078,128.663 258.356 C 128.156 261.143,128.163 262.883,128.682 263.402 C 129.205 263.925,127.662 265.135,124.137 266.964 C 112.148 273.186,112.125 275.876,123.918 293.149 C 128.279 299.537,133.600 310.914,133.600 313.850 C 133.600 315.909,136.684 317.752,143.350 319.680 C 153.198 322.527,159.531 325.935,164.686 331.162 C 168.774 335.308,169.880 335.947,176.400 337.935 C 180.360 339.143,186.238 341.541,189.461 343.265 C 198.182 347.929,200.135 347.325,196.880 340.968 C 195.126 337.544,192.647 335.557,185.832 332.117 C 183.154 330.765,180.115 328.593,179.081 327.290 C 177.819 325.702,175.510 324.358,172.066 323.208 C 166.623 321.390,163.522 319.481,155.287 312.881 C 151.889 310.157,149.129 308.616,147.055 308.284 C 138.742 306.955,125.447 281.243,130.782 276.815 C 133.289 274.734,140.635 274.838,147.211 277.046 C 154.414 279.465,154.227 279.584,151.538 274.280 C 150.345 271.926,148.750 268.200,147.994 266.000 L 146.620 262.000 141.752 262.075 C 139.074 262.116,136.922 261.936,136.969 261.675 C 137.016 261.414,136.761 260.525,136.403 259.699 C 136.026 258.831,136.147 257.106,136.689 255.605 C 137.547 253.234,137.338 252.408,134.272 246.019 C 127.197 231.273,130.254 224.476,139.376 234.673 L 142.352 238.000 142.376 228.200 C 142.389 222.810,142.310 218.414,142.200 218.432 C 142.090 218.450,140.950 219.033,139.666 219.728 " stroke="none" fill="#000000" fill-rule="evenodd"></path></g></svg>